<svg height="128" viewBox="0 0 128 128" width="128" xmlns="http://www.w3.org/2000/svg"><circle cx="64" cy="64" fill="#f2f2f2" r="52" stroke="#000" stroke-width=".01"/><g fill-opacity=".99608"><path d="m63.999977 8.000162a55.999838 55.999838 0 0 0 -55.9998381 55.999838 55.999838 55.999838 0 0 0 .281247 5.593744 55.999838 55.999838 0 0 0 2.2187141 10.952768 55.999838 55.999838 0 0 0 7.281259 15.078357 55.999838 55.999838 0 0 0 2.421833 3.26559c.0063-.0208.0094-.0424.0156-.0624a55.999838 55.999838 0 0 0 43.781473 21.171941 55.999838 55.999838 0 0 0 25.937525-6.42182c.0112.003.02.0128.0312.016a55.999838 55.999838 0 0 0 .281279-.17184 55.999838 55.999838 0 0 0 3.40623-2 55.999838 55.999838 0 0 0 1.359356-.82816 55.999838 55.999838 0 0 0 2.953112-2.15623 55.999838 55.999838 0 0 0 1.640635-1.25 55.999838 55.999838 0 0 0 2.734388-2.46871 55.999838 55.999838 0 0 0 1.31248-1.23439 55.999838 55.999838 0 0 0 2.64063-2.89064 55.999838 55.999838 0 0 0 1.12496-1.281272 55.999838 55.999838 0 0 0 2.21871-2.984392 55.999838 55.999838 0 0 0 1.10936-1.562475 55.999838 55.999838 0 0 0 1.74999-2.890632 55.999838 55.999838 0 0 0 1.14064-1.999994 55.999838 55.999838 0 0 0 1.25-2.671832 55.999838 55.999838 0 0 0 1.10935-2.484393 55.999838 55.999838 0 0 0 .85936-2.468713 55.999838 55.999838 0 0 0 .95312-2.828152 55.999838 55.999838 0 0 0 .70312-2.953111 55.999838 55.999838 0 0 0 .53128-2.343753 55.999838 55.999838 0 0 0 .45311-3.203111 55.999838 55.999838 0 0 0 .29688-2.499993 55.999838 55.999838 0 0 0 .20312-4.421827 55.999838 55.999838 0 0 0 -35.078296-51.90625 55.999838 55.999838 0 0 0 -.0624-.03128 55.999838 55.999838 0 0 0 -.016 0 55.999838 55.999838 0 0 0 -4.921826-1.703115 55.999838 55.999838 0 0 0 -.359375-.124999 55.999838 55.999838 0 0 0 -.04688-.0156 55.999838 55.999838 0 0 0 -4.406227-1.046877 55.999838 55.999838 0 0 0 -1.124957-.25 55.999838 55.999838 0 0 0 -4.406227-.578126 55.999838 55.999838 0 0 0 -1.140637-.140624 55.999838 55.999838 0 0 0 -4.437507-.203127zm15.609555 10.671969a47.999861 47.999861 0 0 1 32.390308 45.327869h-55.99984a15.999954 15.999954 0 0 0 -7.593738-13.593561c10.771169-16.231153 20.83034-26.104724 31.20311-31.734308zm-54.624642 17.43755c1.170556 5.207425 2.862072 10.26637 5.468704 15.078356a15.999954 15.999954 0 0 0 -6.453101 12.812763h-7.999977a47.999861 47.999861 0 0 1 8.983974-27.890319zm15.015956 11.890365a15.999954 15.999954 0 0 0 -.875037.03125 15.999954 15.999954 0 0 1 .875037-.03125zm-1.515595.09375a15.999954 15.999954 0 0 0 -.968717.109376 15.999954 15.999954 0 0 1 .968717-.109376zm-3.53127.749998a15.999954 15.999954 0 0 0 -.453127.156248 15.999954 15.999954 0 0 1 .453127-.156248zm-10.875169 16.483954a15.999954 15.999954 0 0 0 .109376.953117 15.999954 15.999954 0 0 1 -.109376-.953117zm.218752 1.671835a15.999954 15.999954 0 0 0 .140623.640622 15.999954 15.999954 0 0 1 -.140623-.640622zm5.875023 9.593573a15.999954 15.999954 0 0 0 9.827971 3.40623 15.999954 15.999954 0 0 0 8.406376-2.406233c10.759969 16.214353 20.81034 26.115927 31.17191 31.750307a47.999861 47.999861 0 0 1 -15.578355 2.65623 47.999861 47.999861 0 0 1 -40.437483-22.155933c1.901674-4.627986 4.026868-9.122373 6.609341-13.250361z" fill="#fc7f7f" stroke-width="7.99998"/><path d="m28 68 8-16h-8l-8 16z" fill="#4d4d4d"/><path d="m80 24 8 4c5.715826 12.490464 4.939014 23.452889 0 40h-8z" fill="#808080"/><path d="m24 68 8-16h12l8 16h28c5.600358-17.924988 5.060641-32.277644 0-44-26.441502-5.253747-45.101368-5.412436-72 0-5.7561501 18.308422-4.8959776 32.430882 0 44z" fill="#666"/></g><g fill="#1a1a1a"><path d="m20 24 6 24h8l6-24h-5l-5 20-5-20z"/><path d="m44 24v24h4v-8l6 8h6l-8-11s-1.629801 3 0 3c5 0 8-3 8-8s-3-8-8-8zm4 4h4c2 0 4 2 4 4s-2 4-4 4h-4z"/></g></svg>